<svg width="57" height="57" viewBox="0 0 57 57" fill="none" xmlns="http://www.w3.org/2000/svg">
<mask id="mask0_406_517" style="mask-type:alpha" maskUnits="userSpaceOnUse" x="7" y="7" width="44" height="43">
<circle cx="28.6876" cy="28.4986" r="21.4713" fill="#D9D9D9"/>
</mask>
<g mask="url(#mask0_406_517)">
<path fill-rule="evenodd" clip-rule="evenodd" d="M28.1964 33.8621C28.7621 39.7446 26.0502 46.9758 23.4527 49.8993C23.4151 49.9416 23.3533 49.9528 23.301 49.9313C22.5744 49.6326 22.0251 49.276 21.6124 48.8749C20.2347 51.6903 17.9923 53.8227 15.1511 55.4235C14.4924 55.837 13.9186 56.2428 13.3606 56.9403C13.0754 57.2968 12.7452 58.1023 12.3561 59.0952C11.1904 63.1257 9.5797 65.4436 7.93502 66.1811L14.6057 72.8519L18.9428 72.8093C20.0622 72.7983 21.146 73.2021 21.9852 73.9429L24.0051 75.7257C24.0989 75.8086 24.0403 75.9635 23.9151 75.9635H-5.27622C-5.40025 75.9635 -5.45947 75.811 -5.36794 75.7273L-3.3017 73.8377C-2.72506 73.3104 -1.97403 73.0145 -1.19266 73.0069L-0.998573 73.005L-8.34744 65.6561L-8.08366 65.3923C-8.80919 64.1978 -9.65329 62.135 -10.3207 60.0108C-17.2614 60.8465 -24.2769 61.3016 -30.6311 61.7139L-30.6312 61.7139C-38.6078 62.2313 -45.5424 62.6812 -49.9788 63.7315C-50.236 63.7924 -50.4126 63.3979 -50.1916 63.2528L-0.86784 30.8841C1.85033 29.525 6.13314 23.9075 9.32553 18.6521C13.3297 12.5848 16.5311 10.4899 19.5189 9.59132C20.8097 9.2031 23.9665 8.5844 26.088 9.1383C27.8106 9.58806 28.4048 9.99128 29.395 10.6632C29.6242 10.8187 29.8747 10.9887 30.1653 11.177C38.14 11.0329 43.5305 13.0329 45.9507 16.1822C46.0575 16.3212 45.9689 16.518 45.7943 16.5323C44.8024 16.6137 43.6952 16.6562 42.5301 16.7009C38.7822 16.8448 34.4355 17.0117 31.4018 18.5695C26.2938 21.3737 27.4639 28.5242 31.3325 35.1679C31.3907 35.2678 31.3091 35.3901 31.1964 35.3642C30.2137 35.139 29.1989 34.5972 28.1964 33.8621ZM-2.89959 66.4411L3.61899 72.9596L9.98817 72.8972L3.53208 66.4411H-2.89959Z" fill="white"/>
<path d="M26.7674 14.5761C26.7674 15.3893 26.2716 15.9291 25.4584 15.9291C24.6451 15.9291 23.9858 15.2699 23.9858 14.4566C23.9858 13.6433 24.459 13.2168 25.2722 13.2168C26.0855 13.2168 26.7674 13.7628 26.7674 14.5761Z" fill="#17065A"/>
</g>
<circle cx="28.498" cy="28.498" r="26.3061" stroke="white" stroke-width="3.61612"/>
</svg>
